<svg xmlns="http://www.w3.org/2000/svg" width="16" height="16" id="data-analytics"><path d="M0 2v12h16V2H0zm1 1h8v1H1V3zm9 0h1v1h-1V3zm2 0h1v1h-1V3zm2 0h1v1h-1V3zM1 5h14v8H1V5zm7.033 1.451L6.211 9.574 4.527 7.168 2.11 10.189l.782.623 1.582-1.978 1.816 2.594L7.967 8.55l1.447 2.896 1.549-2.062 1.228 1.967 1.694-2.032-.77-.638-.806.968-1.272-2.033-1.451 1.936L8.033 6.45z" color="#000" font-family="sans-serif" font-weight="400" overflow="visible" style="line-height:normal;text-indent:0;text-align:start;text-decoration-line:none;text-decoration-style:solid;text-decoration-color:#000;text-transform:none;block-progression:tb;white-space:normal;isolation:auto;mix-blend-mode:normal;solid-color:#000;solid-opacity:1"></path></svg>